<?xml version="1.0" standalone="no"?>
<!DOCTYPE svg PUBLIC "-//W3C//DTD SVG 20010904//EN"
 "http://www.w3.org/TR/2001/REC-SVG-20010904/DTD/svg10.dtd">
<svg version="1.0" xmlns="http://www.w3.org/2000/svg"
 width="281.000000pt" height="281.000000pt" viewBox="0 0 281.000000 281.000000"
 preserveAspectRatio="xMidYMid meet">
<metadata>
Created by potrace 1.11, written by Peter Selinger 2001-2013
</metadata>
<g transform="translate(0.000000,281.000000) scale(0.100000,-0.100000)"
fill="#000000" stroke="none">
<path d="M1655 2759 c-75 -14 -138 -50 -205 -118 -80 -81 -116 -148 -205 -386
-90 -238 -132 -314 -208 -372 -85 -64 -219 -77 -297 -28 -126 80 -213 346
-215 662 0 34 -3 59 -7 55 -4 -4 -16 -56 -26 -116 -26 -141 -24 -367 2 -471
27 -102 80 -198 140 -251 69 -61 140 -86 248 -90 184 -7 321 67 437 236 49 70
87 146 146 290 126 306 169 353 316 345 307 -17 498 -205 534 -525 4 -30 8
-66 10 -80 2 -14 6 -47 10 -75 3 -27 14 -66 23 -85 14 -28 24 -36 51 -38 44
-5 74 24 96 93 23 73 25 93 25 213 2 395 -255 682 -658 738 -69 9 -174 11
-217 3z"/>
<path d="M67 1698 c-22 -17 -26 -53 -12 -103 16 -50 24 -112 34 -235 9 -117 6
-197 -15 -426 -5 -59 -4 -73 11 -88 26 -25 77 -18 91 14 17 36 32 158 36 302
3 70 5 78 23 79 11 0 31 2 45 4 14 1 78 6 144 10 l118 7 -5 -93 c-3 -51 -14
-139 -23 -196 -16 -99 -16 -104 1 -123 22 -25 67 -26 87 -2 19 21 25 48 48
217 9 71 6 350 -4 395 -3 13 -8 42 -12 65 -3 22 -15 69 -27 105 -25 74 -55 95
-102 70 -30 -16 -32 -43 -9 -120 19 -64 20 -69 29 -143 l7 -57 -48 -1 c-27 -1
-65 -3 -84 -4 -187 -15 -190 -15 -191 8 -1 12 -1 25 -1 28 1 6 -22 157 -34
221 -12 66 -64 98 -107 66z"/>
<path d="M1928 1677 c-80 -19 -149 -120 -150 -218 0 -118 95 -223 201 -222 84
1 160 56 191 138 16 41 14 135 -3 176 -42 100 -139 151 -239 126z"/>
<path d="M1094 1514 c-103 -35 -153 -164 -105 -270 54 -119 192 -151 279 -64
105 106 67 298 -68 338 -43 13 -59 12 -106 -4z"/>
<path d="M2665 1283 c-53 -29 -131 -41 -281 -42 -81 -1 -155 -6 -164 -11 -37
-20 -33 -89 6 -104 10 -4 71 -7 136 -7 l118 0 1 -27 c13 -221 1 -303 -61 -427
-126 -255 -429 -389 -860 -380 -409 8 -606 166 -694 555 -37 164 -50 190 -96
190 -38 0 -63 -33 -77 -100 -6 -32 -6 -167 1 -219 17 -125 86 -285 164 -381
121 -147 305 -247 517 -278 63 -9 325 -8 385 2 212 33 343 78 473 163 179 115
281 257 334 467 3 12 7 68 9 126 2 96 -9 192 -35 285 -8 29 -7 31 23 33 47 4
134 28 160 46 13 8 29 29 35 46 9 28 8 34 -14 56 -28 28 -39 29 -80 7z"/>
<path d="M1597 1132 c-21 -23 -22 -38 -13 -172 9 -120 24 -153 74 -158 21 -2
38 4 53 19 20 20 21 27 15 148 -5 98 -11 132 -25 151 -23 33 -80 39 -104 12z"/>
</g>
</svg>
