<svg id="레이어_1" xmlns="http://www.w3.org/2000/svg" viewBox="0 0 100 100"><style>.st1{fill:#e9a38b}</style><path d="M76.4 14.8c-1.5-1.5-3.5-2.8-6.1-3.8-2.5-1-5.8-1.6-9-1.6-1.3.1-2.2.3-3.1.9-.9.7-1.9 1.9-2.8 3.4-1.8 3.2-3.3 7.4-5.3 11.9-1 2.2-2.1 4.6-3.7 6.9-1.6 2.3-3.6 4.6-6.4 6.1-2.7 1.6-5.9 2.3-8.8 2.2-3 0-6.4-1-8.8-3.1-2.5-2.1-3.9-4.8-4.7-7.5-.8-2.7-1.2-5.3-1.3-8-.3-5.2.4-10.3 1.6-15.1 0 5 .5 10 1.6 14.7.5 2.4 1.3 4.7 2.3 6.7 1 2 2.3 3.7 3.9 4.7.4.3.8.4 1.2.6.4.1.8.3 1.3.4.9.2 1.8.2 2.8.1 2-.2 3.8-.8 5.2-1.8 2.9-2 4.8-5.9 6.4-10 1.6-4.1 2.9-8.6 5.3-13 1.2-2.2 2.8-4.5 5.2-6.2 1.2-.9 2.6-1.6 4-2l1-.3c.4-.1.7-.1 1.1-.2.4-.1.7-.1 1.1-.1h1c2.3 0 4.4.2 6.4.6 2 .4 4 .9 5.8 1.6 3.6 1.4 6.7 3.5 9 5.8 3 2.9 4.7 6.1 5.7 9 1 2.9 1.5 5.5 1.6 7.7.1 1.1.1 2.1.1 3 0 .9-.1 1.8-.2 2.5-.1 1.5-.4 2.7-.7 3.7-1.2 3.9-2.4 4.1-3.5 3.9-1.2-.2-2.2-.8-2.6-4.4-.1-.9-.2-2-.4-3.3-.1-.6-.1-1.3-.3-2.1-.1-.7-.2-1.6-.4-2.4-.3-1.7-.8-3.6-1.6-5.6-.8-2-2-4.1-3.9-5.9z" fill="#ecaf9a"/><path class="st1" d="M46.9 52c0 3.9-2.9 7.1-6.4 7.1-3.5 0-6.4-3.2-6.4-7.1 0-3.9 2.9-7.1 6.4-7.1 3.5 0 6.4 3.2 6.4 7.1z"/><ellipse class="st1" cx="70.2" cy="47.3" rx="7.2" ry="8"/><path class="st1" d="M36.5 82.8c1.2 1.3 2.9 2.6 4.9 3.7 2 1.1 4.5 1.9 7.2 2.4.3.1.7.1 1 .2.4 0 .7.1 1.1.1.7.1 1.5.1 2.2.2.4 0 .8.1 1.1.1h3.5c.8 0 1.7-.1 2.6-.1.8-.1 1.6-.1 2.4-.2.8-.1 1.7-.2 2.5-.3.8-.2 1.7-.3 2.5-.5 1.7-.4 3.4-.8 5-1.4 1.7-.6 3.3-1.3 4.8-2.2 1.6-.9 3-1.9 4.3-3.1 1.3-1.2 2.5-2.6 3.5-4.3 2-3.2 3.1-7.2 3.2-11.4.1-2.1-.8-9.5-.2-9.7.6-.1 2.2 3.5 3 9.4.4 2.4.4 4.9.1 7.3-.3 2.5-1 4.9-2 7.2-2 4.5-5.3 8.2-9 10.8-1.8 1.3-3.7 2.4-5.6 3.2-1.9.9-3.9 1.5-5.8 2.1-1 .3-1.9.5-2.9.7-1 .2-1.9.3-2.8.5-1 .1-1.9.2-2.9.3-.9.1-1.7.1-2.6.2h-4c-.4 0-.9 0-1.3-.1-.9 0-1.7-.1-2.6-.2-.4-.1-.9-.1-1.3-.2-.4 0-.8-.1-1.3-.2-3.3-.6-6.4-1.6-9.2-3.1-2.7-1.4-5.1-3.3-6.9-5.2a24.7 24.7 0 0 1-4.9-7.5c-1.1-2.5-1.6-4.7-2-6.7-.3-2-.4-3.6-.4-5s.1-2.5.3-3.5c.3-1.8.8-2.8 1.3-3.3s1-.5 1.5-.4c.5.1 1 .3 1.4.8.4.5.8 1.4 1.1 2.9.2.8.4 1.7.6 2.8.2 1.1.5 2.4 1 3.8.4 1.4 1 3.1 1.8 4.8 1.1 1.7 2.2 3.5 3.8 5.1z"/><path class="st1" d="M84.5 60.4c-1.6 0-3.2-.1-4.7-.1-1.7-.1-2.9-1.5-2.8-3.2.1-1.7 1.5-2.9 3.2-2.8 6 .3 12.4-.2 13.8-1 1-1.2 2.8-1.4 4.1-.4 1.3 1 1.5 2.9.5 4.2-2.2 2.6-8.2 3.3-14.1 3.3zm9.2-7zM58.8 71.9c-1.8 0-3.3-1.4-3.5-3.2l-.6-7.6c-.1-1.9 1.3-3.6 3.2-3.8 1.9-.2 3.6 1.3 3.8 3.2l.6 7.6c.1 1.9-1.3 3.6-3.2 3.8h-.3zM3.9 70.3h-.4c-1.4-.2-2.3-1.5-2.1-2.8 2.5-16.2-.7-26-.7-26.1-.4-1.3.3-2.7 1.6-3.2 1.3-.4 2.7.3 3.2 1.6.1.4 3.6 11 .9 28.5-.2 1.1-1.3 2-2.5 2zM19.4 70.3c-.2 0-.4 0-.5-.1-1.3-.3-2.2-1.6-1.9-3 3.4-15.7-.6-25.7-.7-25.8-.5-1.3.1-2.7 1.4-3.3 1.3-.5 2.7.1 3.3 1.3.2.5 4.7 11.5 1 28.8-.4 1.3-1.4 2.1-2.6 2.1z"/><path class="st1" d="M4.9 55.6c-1.3 0-2.4-1-2.5-2.3-.1-1.4.9-2.6 2.3-2.7l16-1.1c1.4-.1 2.6.9 2.7 2.3.1 1.4-.9 2.6-2.3 2.7L5 55.6h-.1z"/></svg>